<svg class="svg-defs" version="1.1" xmlns="http://www.w3.org/2000/svg">
    <defs>
        <symbol id="food-icon" viewBox="0 0 180 180">
            <path d="M63.4,58.16c5.51,0.05,9.23,0.81,12.73,2.27c7.05,2.94,13.93,2.8,21.05,0.01
                c9.71-3.81,18.92-3.2,27.04,4.16c1.73,1.57,1.85,2.29-0.58,3.21c-27.84,10.53-32.66,46.71-7.43,65.33c1.96,1.45,3.99,2.84,6.12,4.03
                c1.68,0.94,1.3,1.57,0.17,2.65c-7.06,6.76-18.37,9.06-27.27,4.89c-5.91-2.77-11.3-2.75-17.21,0.01c-8.91,4.16-20.18,1.83-27.28-4.91
                c-1.57-1.49-0.89-1.98,0.53-2.81c7.93-4.64,14.52-10.67,18.61-19.03c7.73-15.83,3.97-40.05-19.31-49.83
                c-3.76-1.58-3.76-1.6-0.72-4.2C54.24,60.21,59.28,58.18,63.4,58.16z M89.15,51.86c-0.78-4.86-1.91-9.58-4.04-14.03
                c-2.79-5.8-2.79-5.8-7.73-1.99c-0.7,0.54-1.39,1.12-2.14,1.59c-1.47,0.93-1.65,1.65-0.18,2.96c3.86,3.45,6.93,7.53,8.52,12.54
                c0.49,1.55,1.32,2.22,2.95,1.91C89.02,55.33,89.53,54.23,89.15,51.86z"/>
        </symbol>
        <symbol id="paper-icon" viewBox="0 0 180 180">
            <path d="M48.71,60.99c10.4-10.5,21.37-20.45,31.22-31.51c0.71-0.79,1.77-1.27,2.67-1.89
                c0.01,11.32,0.01,22.64,0.01,33.96C72,61.59,61.4,61.62,50.79,61.64C50.05,61.64,49.21,61.81,48.71,60.99z M131.97,26.98
                c0.03,24.13,0.08,48.26,0.09,72.39c0,15.46-0.06,30.91-0.09,46.37c0.01,0.22,0.02,0.44,0.03,0.67c0.95-1.27,0.73-2.76,0.73-4.19
                c0.01-37.24,0.01-74.48,0-111.72c0-1.43,0.22-2.91-0.73-4.19C131.99,26.53,131.98,26.76,131.97,26.98z M48.03,145.74
                c0,0.23-0.01,0.46-0.01,0.68c27.99-0.01,55.99-0.01,83.98-0.02c-0.01-0.22-0.02-0.44-0.03-0.67
                C103.99,145.74,76.01,145.74,48.03,145.74z M47.99,71.06c0,0-0.06-0.1-0.06-0.1c-0.83,1.31-0.66,2.78-0.66,4.22
                c-0.01,22.35-0.01,44.71,0,67.06c0,1.43-0.22,2.92,0.75,4.18c0-0.23,0.01-0.46,0.01-0.68C48.02,120.84,48,95.95,47.99,71.06z
                M91.97,70.84c1.17-1.08,0.67-2.49,0.68-3.75c0.07-13.36,0.09-26.73,0.12-40.09c-0.03-0.21-0.03-0.43-0.02-0.64
                c-1.09,1.35-0.73,2.96-0.73,4.47c-0.06,13.16-0.08,26.32-0.12,39.47C91.92,70.48,91.95,70.66,91.97,70.84z M52.46,70.34
                c-1.53,0-3.11-0.23-4.53,0.62c0,0,0.06,0.1,0.06,0.1c13.33-0.02,26.66-0.03,40-0.06c1.33,0,2.66-0.1,3.99-0.15
                c-0.02-0.18-0.05-0.36-0.07-0.54C78.75,70.31,65.61,70.32,52.46,70.34z M131.97,26.98c0.01-0.22,0.02-0.44,0.03-0.67
                c-13.08,0.01-26.17,0.03-39.25,0.04c-0.01,0.21-0.01,0.43,0.02,0.64C105.84,26.99,118.9,26.98,131.97,26.98z M51.65,62.25
                c9.26,0.11,18.53,0.07,27.8,0.06c1.31,0,2.67,0.14,3.82-0.73l-0.33,0.01c0,0-0.33-0.04-0.33-0.04C72,61.59,61.4,61.62,50.79,61.64
                c-0.74,0-1.58,0.17-2.08-0.65C48.81,63.38,50.69,62.24,51.65,62.25z M83.29,29.76c0-0.73,0.53-1.78-0.7-2.17
                c0.01,11.32,0.01,22.64,0.01,33.96c0,0,0.33,0.04,0.33,0.04l0.33-0.01C83.29,50.98,83.32,40.37,83.29,29.76z M92.65,67.09
                c-0.01,1.26,0.49,2.68-0.68,3.75c-1.33,0.05-2.66,0.15-3.99,0.15c-13.33,0.03-26.66,0.04-40,0.06c0.01,24.89,0.03,49.79,0.04,74.68
                c27.98,0,55.96,0,83.94,0c0.03-15.46,0.1-30.91,0.09-46.37c-0.01-24.13-0.06-48.26-0.09-72.39c-13.07,0.01-26.13,0.01-39.2,0.02
                C92.74,40.36,92.72,53.72,92.65,67.09z"/>
        </symbol>
        <symbol id="rest-icon" viewBox="0 0 180 180">
            <path id="Sekk" class="st0" d="M89.94,153.49c-15.11,0-30.22-0.05-45.33,0.05c-2.56,0.02-3.47-0.61-3.4-3.32
                c0.37-13.87-0.64-27.78,0.77-41.63c1.25-12.28,4.01-24.13,11.54-34.29c6.77-9.14,15.74-14.11,27.36-13.86
                c5.89,0.13,11.78,0.16,17.66-0.01c13.47-0.39,23.12,5.93,30.05,16.97c5.92,9.44,8.32,20.04,9.42,30.95
                c1.42,14.18,0.42,28.42,0.75,42.64c0.06,2.59-1.37,2.51-3.16,2.51C120.38,153.48,105.16,153.49,89.94,153.49z M98.73,51.08
                c1.61,0.05,2.66-0.41,3.47-1.92c1.98-3.72,4.07-7.39,6.28-10.99c1.12-1.83,0.63-2.67-1.18-3.49c-2.83-1.27-5.61-2.68-8.33-4.18
                c-1.78-0.99-2.49-0.46-3.02,1.35c-0.87,2.98-1.91,5.91-2.93,8.84c-0.24,0.7-0.31,1.74-1.24,1.8c-1.2,0.07-1.21-1.14-1.46-1.91
                c-1.58-4.85-3.14-9.72-4.61-14.6c-0.47-1.57-1.05-2.22-2.81-1.51c-4.32,1.74-8.69,3.38-13.08,4.92c-1.7,0.6-2.04,1.28-1.12,2.86
                c1.78,3.07,3.77,6.09,5.05,9.37c2.91,7.49,7.3,11.98,14.63,9.43C92.73,51.05,95.73,50.99,98.73,51.08z"/>
        </symbol>
        <symbol id="xmasTree-icon" viewBox="0 0 180 180">
            <g id="Component_7_1" data-name="Component 7 – 1" transform="translate(40 34)">
                <path id="Polygon_15" data-name="Polygon 15" d="M19.16,1.3a1,1,0,0,1,1.681,0L39.005,29.458A1,1,0,0,1,38.165,31H1.835a1,1,0,0,1-.84-1.542Z" transform="translate(30)"/>
                <path id="Polygon_16" data-name="Polygon 16" d="M34.337.587a1,1,0,0,1,1.326,0L68.026,29.251A1,1,0,0,1,67.363,31H2.637a1,1,0,0,1-.663-1.749Z" transform="translate(15 33)"/>
                <path id="Polygon_17" data-name="Polygon 17" d="M49.473.327a1,1,0,0,1,1.054,0L97.016,29.15A1,1,0,0,1,96.489,31H3.511a1,1,0,0,1-.527-1.85Z" transform="translate(0 66)"/>
                <rect id="Rectangle_952" data-name="Rectangle 952" width="8" height="14" rx="1" transform="translate(46 99)" />
            </g>
        </symbol>
    </defs>
</svg>