<svg class="svg-defs" version="1.1" xmlns="http://www.w3.org/2000/svg">
    <defs>
        <symbol id="food-icon" viewBox="0 0 205.12 203.52">
            <path
                d="m92.254 200.2c-37.702-3.455-71.899-30.708-83.479-66.765-12.484-35.591-1.6188-77.584 26.148-102.98 29.758-28.922 78.48-34.666 114.49-14.329 31.688 17.213 52.349 52.836 50.669 88.978-0.27729 40.493-29.013 78.406-67.456 90.634-12.973 4.5606-26.76 5.1619-40.369 4.4653zm5.4065-40.43c8.6847-2.4876 19.034-5.5156 23.514-14.07-0.452-11.599-15.311-5.0667-19.711-13.166-2.7308-7.05 4.8123-12.888 11.393-12.135-0.0831-9.3032 14.802-7.7851 9.3443-17.621-0.34263-10.238 12.314-8.165 16.143-15.649 8.7364-8.0927 13.009 4.1647 18.64 7.0761 3.6712-8.1489-1.6627-19.573-8.2813-25.497-5.9549-5.3529-13.776-7.6128-21.377-9.4868-3.9882-9.4281-11.661-18.476-22.647-18.821-10.227-2.9116-10.677 6.0044-7.0657 12.9 3.5395 6.642-1.9297 14.139-2.9317 17.996 8.0829 6.4085-2.4742 10.883-3.7745 15.783 0.54633 8.1102-8.331 9.834-13.705 9.3784-2.0586 12.638-16.108 8.1721-18.064-1.752-7.779-9.8305-17.303 5.6032-16.895 13.573-1.7242 14.922 3.04 32.293 16.94 40.018-2.6294 2.0624-7.7506 9.68 0.36146 6.1834 3.1029-2.5946 1.241 10.123 5.7806 2.9409 2.0699-10.57 11.952 5.2049 19.25 2.8399 4.3461 0.35444 8.7789 0.18188 13.086-0.49091zm-12.926-3.9806c-10.462-0.0517-15.002-10.85-24.677-12.289-12.559-8.3096-16.056-25.901-12.333-39.755 1.2076-8.6011 10.352-9.393 10.126 0.16366 2.7862 10.035 9.5494 18.49 17.583 24.909-4.2423 7.9038 5.6841 11.538 11.752 13.579 9.2257 4.4533 20.262-2.092 28.483 1.2851-2.0949 8.469-16.372 11.427-24.685 12.237-2.0822 0.0347-4.1731 0.0685-6.249-0.12943zm66.394-74.446c-8.087-10.018-19.424-2.176-28.984-1.2897-9.204-3.4475-12.56-14.002-16.761-22.053-2.784-6.0979-8.7987-17.313 3.1333-12.381 10.095 1.5725 11.103 14.083 18.57 18.199 10.191 2.0408 21.919 7.2301 24.898 18.099zm-15.948-27.264c3.8132-10.6 18.005-0.8432 21.074-8.2458-8.4269-4.9018-22.096-1.9585-25.752 7.8585 1.3718 0.51883 3.8783 3.6978 4.6779 0.38735z"
            />
        </symbol>
        <symbol id="paper-icon" viewBox="0 0 476 476">
            <path
                d="m212.16 461.26c-87.308-10.22-165.51-75.074-189.41-160.02-27.464-88.274 5.9442-191.29 80.75-245.89 74.872-57.826 186.45-60.186 263.86-5.9325 63.585 43.106 102.91 120.5 97.724 197.44-1.7475 95.296-72.97 183.31-164.79 207.51-28.518 8.9502-58.646 8.105-88.137 6.8921zm170-117.83c14.48-1.0589 24.073-6.3753 10.951-19.734-11.121-17.574-12.651-37.808-9.6676-57.882-1.8209-41.326 2.5114-82.522 8.2162-123.37-8.6048-2.1297-36.99 10.561-15.571 13.336 7.5231 14.036-5.3684 42.925-2.6446 62.698 0.31282 27.369-2.2356 54.956-0.66669 82.162 1.8469 14.401 24.333 36.059-2.5358 35.146-23.382 6.8032-46.31-2.7574-68.75-6.9858-14.145 4.7821-32.676 2.8536-42.832 12.743 20.973 12.656 46.717-13.195 68.999 4.4979 17.989 3.559 36.881 2.2845 54.501-2.6141zm-136.74-8.7464c23.802-17.056 55.249-22.012 83.034-12.755 13.993 1.8531 43.217 9.8878 29.754-14.35-7.1205-24.82 4.2712-49.851-0.53969-74.743-1.0694-27.972-8.6676-56.176-0.85955-83.835 3.0382-10.753 4.7479-23.285-9.2968-12.854-20.751 10.451-45.051 3.4504-66.353 10.041-15.863 3.0115-33.001 40.759-40.785 11.956-19.576-19.079-51.675-9.1818-72.61-26.208-19.837-17.26-45.859-5.0806-68.224-1.7073-14.226 5.5207 14.845 25.491 14.508 39.103 8.4362 20.118 15.808 40.474 19.178 62.186 7.7642 27.446-5.0015 54.218-13.411 79.918 27.135-2.2436 54.376-12.285 81.615-7.533 12.083 3.857 14.206 6.2309-0.54105 3.5744-23.275 2.8389-43.937 17.808-68.329 16.734-13.921 2.2427-34.007 6.0355-22.024-14.248 1.8124-18.015-0.72876-36.525 5.9991-53.879 3.5397-12.113-4.0465-24.509-4.2344-36.827 1.0489-16.436-20.957-35.99-15.453-46.904 10.48-17.828-35.814-6.5195-12.563 7.8091 13.841 19.255 18.984 42.35 22.529 65.295 1.3059 11.849-6.6719 23.338-5.5334 35.568 2.6632 18.933-5.7785 40.484-6.6585 56.155 32.58-1.8101 66.326-2.5365 96.077-17.611 19.024-9.0243 37.952 8.8954 40.868 23.086 4.6571-2.5868 9.2548-5.2787 13.852-7.969zm-8.2963-10.038c-5.5114-26.619-37.483-36.05-61.363-31.852-14.229-0.93247-51.458 17.206-34.99-10.894 10.493-29.051 1.5767-59.561-5.8919-88.06-8.3991-18.348-13.569-38.17-24.992-55.036 20.48-5.9629 44.327-10.205 60.844 7.1154 19.602 11.286 46.947 4.2403 63.414 20.911 8.196 20.183-4.8345 42.368-2.0275 63.703-0.1732 24.301 3.5234 48.719 11.984 71.55 18.901-5.9286-4.6369-33.514-0.76563-49.595-0.0396-23.052-2.8312-47.75 5.9422-69.456 18.51-14.199 35.714-35.409 61.92-29.858 13.26 4.2709 44.836-17.578 32.946 8.1078-3.2625 31.189 4.2118 62.406 4.5303 93.527-7.4843 18.519 2.3776 47.041-4.113 59.295-25.158-5.0114-51.79-11.452-76.892-2.094-8.6396-0.21308-26.901 18.795-30.546 12.638zm-17.25-45.859c-5.901-21.753-40.378-15.91-57.12-12.715-1.8267 10.593 14.921 2.8292 21.495 5.147 12.713-1.3812 25.068 2.6688 35.625 7.5684zm63.082-4.1126c13.855-5.8939 28.954-2.8364 43.453-2.1788-2.123-15.574-35.982-8.4844-49.677-3.8888-16.499 4.2252-5.8762 16.381 6.2242 6.0676zm-7.5284-27.198c15.143-10.311 33.5-7.9267 50.732-7.6413-3.9196-15.045-37.014-7.1891-49.912-1.1565-12.85 1.0087-19.682 21.407-0.81983 8.7978zm-58.143-3.2663c-7.178-16.64-44.375-19.702-55.443-15.294 5.1281 12.156 30.012 3.6661 40.889 11.338 3.1045-0.23452 16.312 11.893 14.554 3.9563zm58.375-24.989c13.364-11.74 39.368-5.2873 50-12.441-11.516-11.799-41.832-0.13163-57.294 7.7108-11.784 8.6054-1.4857 12.976 7.294 4.7301zm-60.607-3.4679c-4.5134-17.812-33.315-17.608-49.42-20.339-19.128-2.4688-1.6202 13.199 10.046 8.8043 14.086-1.3848 28.253 10.814 39.375 11.535zm60.027-21.891c11.393-17.186 46.741-2.9727 50.675-20.407-20.632 0.16817-44.328 3.2083-60.45 18.396-4.2501 16.559 3.7673 4.0314 9.7743 2.0115zm-61.407-10.777c-5.2061-18.971-38.151-17.899-55.95-22.168-21.679 4.453 13.585 10.732 22.123 11.202 11.481 0.28276 24.475 11.676 33.827 10.966z"
            />
        </symbol>
        <symbol id="rest-icon" viewBox="0 0 438.66666 442.66666">
            <path
                d="m196.97 420.98c-87.609-10.102-162.47-85.167-171.75-172.98-10.693-77.911 30.615-159.21 99.418-197.07 70.665-41.236 166.28-31.508 227.35 22.85 62.156 52.457 85.708 144.82 55.795 220.53-26.805 70.849-97.256 125.08-173.82 127.15-12.32 0.56533-24.72 0.86131-37-0.4825zm33.819-82.001c27.959-5.454 56.271-12.045 82.216-23.932 15.602-11.33 36.881-25.59 34.554-47.526-5.1735-19.478-6.9657-40.617-20.29-56.846-14.548-17.099-20.955-41.251-41.866-52.425-15.701-10.331-34.622-13.338-52.174-18.629 13.189-12.453 35.399-12.627 48.569-26.148-1.7766-11.466-20.289-17.448-26.998-28.439-21.151 10.561-36.404 30.196-50.743 48.452-25.894-9.0003-51.038-22.6-79.006-23.995 0.92303 17.289 22.942 29.297 39.323 32.712 29.634 5.9293-17.369 14.526-20.392 28.496-13.579 15.011-31.873 25.168-39.312 45.154-8.0647 16.385-19.808 34.22-17.443 52.958 15.63 22.481 34.552 45.539 60.646 56.039 19.504 5.2316 39.241 9.7201 58.664 15.298 8.0702 1.3954 16.227-0.28148 24.251-1.1677zm-34.722-11.535c-22.806-7.9926-49.971-7.8239-67.366-26.992-11.041-10.982-23.822-23.02-30.758-36.549 3.5063-23.51 16.606-44.024 28.969-63.723 20.326-12.442 30.312-36.447 53.7-44.623 19.94-11.23 44.176-6.3888 65.534-2.7268 23.754 5.7218 48.431 18.356 57.579 42.542 13.291 17.462 26.973 36.912 28.504 59.704 11.392 19.721-5.5533 37.655-21.057 48.292-25.263 14.387-54.397 21.065-82.821 26.216-11.109 1.8868-21.79 3.1723-32.283-2.1406zm-27.645-189.6c-4.2007-1.9856-29.308-11.532-18.5-12.579 11.648 2.4087 38.965 6.0538 39.247 16.281-7.0765 2.3808-14.115-1.6755-20.746-3.7015zm44.312-0.2076c7.7141-18.507 23.449-31.849 40.296-41.94 18.249 13.997-19.987 22.653-26.358 35.448-2.705 1.3968-11.824 12.672-13.939 6.4917z"
                stroke-width="1.3333"
            />
        </symbol>
        <symbol id="xmasTree-icon" viewBox="0 0 1034.6667 1046.4">
            <path
                d="m518.54 1033c-216.88-11.841-411.81-179.22-459.67-390.54-50.466-198.59 29.581-423.2 198-541.38 159.58-119.2 390.38-127.89 558.66-21.716 177.52 106.35 275.52 326.59 237.13 529.74-32.85 202.16-197.09 375.91-399.16 414.57-44.292 9.1696-89.829 12.399-134.96 9.3265zm72.474-127.56c48.813-6.7683 7.2405-104.56 68.727-71.51 33.908 0.2072 106.22 17.262 109.58-26.499-34.282-23.189-24.444-36.767 13.667-24.601 41.798 20.225 82.939-22.187 32.91-48.214-25.524-14.908-26.338-36.121 6.5965-23.525 31.131 11.116 121.43-11.41 61.477-47.553-21.161-18.35-93.572-40.419-78.848-64.472 32.818 7.6762 64.513-27.289 19.46-38.73-40.917-24.284-86.123-53.131-111.52-92.28 37.484-2.3745 69.218-42.586 15.187-57.116-20.425-7.6381-71.038-39.99-19.611-42.989 46.324-32.443-74.427-63.727-10.706-88.813-4.3928-48.035-80.793-58.63-94.571-109.53-21.761-25.591-23.969-76.169-48.551-90.725-20.166 66.633-65.433 125.43-120.83 166.94-30.901 35.245 60.37 31.719 12.979 61.419-24.697 18.261-97.75 57.938-36.934 77.417 55.944 10.048-28.23 71.874-51.57 87.277-21.596 14.481-94.053 48.853-38.766 68.291 65.718-4.8693-24.186 43.891-38.212 61.688-42.637 11.589-43.672 68.458 7.1585 57.854 25.038 1.4428 100.96-16.3 45.632 22.612-21.84 21.701-123.14 54.059-56.219 79.428 23.547 4.074 117.59-7.1638 56.795 25.39-45.385 28.268 1.5543 64.833 39.037 54.214 38.258 20.459 98.766-26.319 121.69-2.8761-9.9165 68.658 39.108 77.007 95.438 66.896zm-61.002-26.049c-32.64-22.31 31.238-123.89-24.4-92.277-44.374 30.553-101.4 39.049-153.59 26.763 17.257-29.912 90.116-54.675 82.525-88.922-32.331 4.4951-109.98 26.02-120.15 1.6073 38.639-26.546 89.372-55.711 103.87-101-41.178 1.2898-85.855 12.188-127.36 5.0854 33.93-33.137 74.972-66.019 111.41-99.257 41.164-40.178 63.138 54.398 100.43-0.51737 29.053-10.614 51.392-96.629 8.7768-56.023-12.927 37.587-40.139 50.744-65.649 19.3-21.628-6.6045-81.56 31.466-83.004 6.4097 44.305-27.448 82.389-66.427 106.51-112.8 19.383-39.392-80.249-10.449-27.251-43.463 25.617-21.717 74.921-62.328 65.065-91.96-69.905 7.5606 22.582-51.64 30.83-79.101 28.886-67.518 45.468 40.063 78.419 56.972 23.586 18.979 73.817 49.637 11.509 51.49-21.084 22.921 83.678 53.037 35.02 66.653-28.211 20.773-96.245-43.562-93.97 3.0475 34.118 25.775 82.399 17.812 107.23 57.475 24.289 12.874 46.736 33.178 4.1322 31.865-53.234-1.9258 21.943 57.917 36.695 72.824 11.701 21.279 103.6 60.655 36.148 61.259-52.545-11.554-26.869 25.453 3.2224 37.026 25.103 25.472 91.971 48.051 93.925 72.576-61.41 2.9131-123.46-7.6122-178.49-35.327-32.228-6.3338-8.932 57.691-47.212 31.303-12.208-17.843-59.759-42.069-41.881-2.3848 19.771 23.582 59.07 45.628 88.086 31.46 11.276-56.391 84.611 5.3928 109.8 28.196 41.363 34.97-50.431 12.213-65.718 6.4204-62.431-31.575-6.0255 51.872 6.3074 62.905-48.681 13.158-93.424-12.356-134.52-26.526 9.1982 42.024 25.674 122.21-46.477 99.694z"
            />
        </symbol>
    </defs>
</svg>